<svg width="120" height="120" viewBox="0 0 120 120" xmlns="http://www.w3.org/2000/svg">
  <defs>
    <radialGradient id="appleGradient" cx="0.3" cy="0.3">
      <stop offset="0%" stop-color="#FF8A8A"/>
      <stop offset="50%" stop-color="#FF6B6B"/>
      <stop offset="100%" stop-color="#E53E3E"/>
    </radialGradient>
    <linearGradient id="leafGradient" x1="0%" y1="0%" x2="100%" y2="100%">
      <stop offset="0%" stop-color="#68D391"/>
      <stop offset="50%" stop-color="#4CAF50"/>
      <stop offset="100%" stop-color="#2F855A"/>
    </linearGradient>
    <filter id="shadow">
      <feDropShadow dx="3" dy="3" stdDeviation="4" flood-color="#00000040"/>
    </filter>
  </defs>
  <!-- Apple shadow -->
  <ellipse cx="62" cy="100" rx="30" ry="8" fill="#00000020"/>
  <!-- Apple shape with gradient -->
  <path d="M 60 15 C 45 20, 25 35, 25 60 C 25 85, 40 105, 60 105 C 80 105, 95 85, 95 60 C 95 35, 75 20, 60 15 Z" fill="url(#appleGradient)" filter="url(#shadow)"/>
  <!-- Apple indent at top -->
  <path d="M 50 20 Q 55 15, 60 20 Q 65 15, 70 20 Q 65 25, 60 22 Q 55 25, 50 20 Z" fill="#E53E3E"/>
  <!-- Apple highlight -->
  <ellipse cx="45" cy="35" rx="12" ry="20" fill="#FF9999" opacity="0.7"/>
  <ellipse cx="42" cy="32" rx="6" ry="10" fill="#FFB3B3" opacity="0.5"/>
  <!-- Leaf with gradient and detail -->
  <ellipse cx="68" cy="18" rx="8" ry="15" fill="url(#leafGradient)" transform="rotate(25 68 18)"/>
  <!-- Leaf vein -->
  <path d="M 65 12 Q 68 18 71 24" stroke="#2F855A" stroke-width="1" fill="none" transform="rotate(25 68 18)"/>
  <!-- Stem with detail -->
  <rect x="58" y="10" width="4" height="10" fill="#8B4513"/>
  <rect x="59" y="11" width="2" height="8" fill="#A0522D"/>
  <!-- Apple texture spots -->
  <circle cx="70" cy="50" r="2" fill="#E53E3E" opacity="0.6"/>
  <circle cx="40" cy="65" r="1.5" fill="#E53E3E" opacity="0.5"/>
  <circle cx="75" cy="75" r="1" fill="#E53E3E" opacity="0.4"/>
</svg>