<svg width="120" height="120" viewBox="0 0 120 120" xmlns="http://www.w3.org/2000/svg">
  <defs>
    <radialGradient id="cakeGradient" cx="0.3" cy="0.3">
      <stop offset="0%" stop-color="#FFEAA7"/>
      <stop offset="70%" stop-color="#FFDAB9"/>
      <stop offset="100%" stop-color="#DEB887"/>
    </radialGradient>
    <radialGradient id="frostingGradient" cx="0.3" cy="0.3">
      <stop offset="0%" stop-color="#FFE4E1"/>
      <stop offset="70%" stop-color="#FFB6C1"/>
      <stop offset="100%" stop-color="#FF69B4"/>
    </radialGradient>
    <linearGradient id="candleGradient" x1="0%" y1="0%" x2="100%" y2="100%">
      <stop offset="0%" stop-color="#FFD700"/>
      <stop offset="50%" stop-color="#FFA500"/>
      <stop offset="100%" stop-color="#FF8C00"/>
    </linearGradient>
    <radialGradient id="flameGradient" cx="50%" cy="50%" r="50%">
      <stop offset="0%" stop-color="#FFFF00"/>
      <stop offset="50%" stop-color="#FF4500"/>
      <stop offset="100%" stop-color="#FF0000"/>
    </radialGradient>
    <filter id="shadow">
      <feDropShadow dx="3" dy="3" stdDeviation="4" flood-color="#00000040"/>
    </filter>
    <filter id="glow">
      <feGaussianBlur stdDeviation="2" result="coloredBlur"/>
      <feMerge> 
        <feMergeNode in="coloredBlur"/>
        <feMergeNode in="SourceGraphic"/>
      </feMerge>
    </filter>
  </defs>
  <!-- Cake shadow -->
  <ellipse cx="62" cy="105" rx="40" ry="10" fill="#00000030"/>
  <!-- Cake base with gradient -->
  <rect x="20" y="45" width="80" height="50" fill="url(#cakeGradient)" rx="8" filter="url(#shadow)"/>
  <!-- Cake layers -->
  <rect x="22" y="70" width="76" height="4" fill="#DDA0DD"/>
  <rect x="24" y="85" width="72" height="3" fill="#D8BFD8"/>
  <!-- Cake texture -->
  <rect x="25" y="50" width="70" height="2" fill="#E6D3A3" opacity="0.6"/>
  <rect x="25" y="60" width="70" height="2" fill="#E6D3A3" opacity="0.5"/>
  <!-- Frosting layer with gradient -->
  <ellipse cx="60" cy="45" rx="40" ry="12" fill="url(#frostingGradient)"/>
  <!-- Frosting swirls -->
  <path d="M 30 45 Q 35 40 40 45 Q 45 50 50 45" stroke="url(#frostingGradient)" stroke-width="3" fill="none"/>
  <path d="M 70 45 Q 75 40 80 45 Q 85 50 90 45" stroke="url(#frostingGradient)" stroke-width="3" fill="none"/>
  <!-- Candle with gradient -->
  <rect x="56" y="25" width="8" height="30" fill="url(#candleGradient)" rx="2"/>
  <!-- Candle highlight -->
  <rect x="57" y="26" width="3" height="28" fill="#FFFF00" opacity="0.4" rx="1"/>
  <!-- Candle wick -->
  <rect x="59" y="20" width="2" height="8" fill="#8B4513"/>
  <!-- Flame with gradient and glow -->
  <ellipse cx="60" cy="18" rx="5" ry="10" fill="url(#flameGradient)" filter="url(#glow)"/>
  <ellipse cx="60" cy="16" rx="3" ry="6" fill="#FFFF00"/>
  <ellipse cx="60" cy="14" rx="1" ry="3" fill="#FFFFFF" opacity="0.8"/>
  <!-- Decorative frosting roses -->
  <g transform="translate(35, 55)">
    <circle r="5" fill="#FF69B4"/>
    <circle r="3" fill="#FFB6C1"/>
    <circle r="1" fill="#FFC0CB"/>
  </g>
  <g transform="translate(85, 55)">
    <circle r="5" fill="#FF69B4"/>
    <circle r="3" fill="#FFB6C1"/>
    <circle r="1" fill="#FFC0CB"/>
  </g>
  <g transform="translate(45, 75)">
    <circle r="4" fill="#FF69B4"/>
    <circle r="2" fill="#FFB6C1"/>
  </g>
  <g transform="translate(75, 75)">
    <circle r="4" fill="#FF69B4"/>
    <circle r="2" fill="#FFB6C1"/>
  </g>
  <g transform="translate(60, 88)">
    <circle r="5" fill="#FF69B4"/>
    <circle r="3" fill="#FFB6C1"/>
    <circle r="1" fill="#FFC0CB"/>
  </g>
  <!-- Cake plate -->
  <ellipse cx="60" cy="95" rx="45" ry="8" fill="#E6E6FA"/>
  <ellipse cx="60" cy="95" rx="45" ry="6" fill="#DDA0DD"/>
  <!-- Sparkles around flame -->
  <g fill="#FFFF00" opacity="0.8">
    <polygon points="45,10 46,13 49,13 47,15 48,18 45,16 42,18 43,15 41,13 44,13"/>
    <polygon points="75,12 76,15 79,15 77,17 78,20 75,18 72,20 73,17 71,15 74,15"/>
  </g>
</svg>