<svg width="120" height="120" viewBox="0 0 120 120" xmlns="http://www.w3.org/2000/svg">
  <defs>
    <radialGradient id="coneGradient" cx="0.3" cy="0.3">
      <stop offset="0%" stop-color="#F4A460"/>
      <stop offset="70%" stop-color="#DEB887"/>
      <stop offset="100%" stop-color="#CD853F"/>
    </radialGradient>
    <radialGradient id="strawberryGradient" cx="0.3" cy="0.3">
      <stop offset="0%" stop-color="#FFE4E1"/>
      <stop offset="70%" stop-color="#FFB6C1"/>
      <stop offset="100%" stop-color="#FF69B4"/>
    </radialGradient>
    <radialGradient id="mintGradient" cx="0.3" cy="0.3">
      <stop offset="0%" stop-color="#F0FFF0"/>
      <stop offset="70%" stop-color="#98FB98"/>
      <stop offset="100%" stop-color="#90EE90"/>
    </radialGradient>
    <radialGradient id="vanillaGradient" cx="0.3" cy="0.3">
      <stop offset="0%" stop-color="#FFFACD"/>
      <stop offset="70%" stop-color="#F0E68C"/>
      <stop offset="100%" stop-color="#BDB76B"/>
    </radialGradient>
    <filter id="shadow">
      <feDropShadow dx="3" dy="3" stdDeviation="4" flood-color="#00000040"/>
    </filter>
  </defs>
  <!-- Ice cream shadow -->
  <ellipse cx="62" cy="105" rx="20" ry="6" fill="#00000025"/>
  <!-- Waffle cone with gradient -->
  <path d="M 45 60 L 60 100 L 75 60 Z" fill="url(#coneGradient)" filter="url(#shadow)"/>
  <!-- Waffle pattern -->
  <g stroke="#CD853F" stroke-width="1.5" fill="none">
    <path d="M 47 62 L 73 62"/>
    <path d="M 49 67 L 71 67"/>
    <path d="M 51 72 L 69 72"/>
    <path d="M 53 77 L 67 77"/>
    <path d="M 55 82 L 65 82"/>
    <path d="M 57 87 L 63 87"/>
    <path d="M 59 92 L 61 92"/>
    <!-- Diagonal lines -->
    <path d="M 45 60 L 75 60"/>
    <path d="M 50 60 L 70 80"/>
    <path d="M 55 60 L 65 75"/>
    <path d="M 60 60 L 60 100"/>
    <path d="M 65 60 L 55 75"/>
    <path d="M 70 60 L 50 80"/>
  </g>
  <!-- Cone highlight -->
  <path d="M 50 65 L 58 95 L 52 70 Z" fill="#F4A460" opacity="0.4"/>
  <!-- Bottom scoop (strawberry) -->
  <circle cx="60" cy="55" r="20" fill="url(#strawberryGradient)"/>
  <!-- Strawberry texture -->
  <g fill="#FF1493" opacity="0.6">
    <circle cx="50" cy="50" r="1"/>
    <circle cx="70" cy="48" r="1"/>
    <circle cx="45" cy="60" r="0.8"/>
    <circle cx="75" cy="55" r="0.8"/>
    <circle cx="55" cy="65" r="0.6"/>
    <circle cx="65" cy="42" r="0.6"/>
  </g>
  <!-- Middle scoop (mint) -->
  <circle cx="60" cy="35" r="17" fill="url(#mintGradient)"/>
  <!-- Mint chocolate chips -->
  <g fill="#8B4513">
    <ellipse cx="55" cy="32" rx="2" ry="1"/>
    <ellipse cx="68" cy="35" rx="1.5" ry="1"/>
    <ellipse cx="52" cy="40" rx="1" ry="0.8"/>
    <ellipse cx="65" cy="28" rx="1.2" ry="0.6"/>
  </g>
  <!-- Top scoop (vanilla) -->
  <circle cx="60" cy="18" r="14" fill="url(#vanillaGradient)"/>
  <!-- Vanilla bean specks -->
  <g fill="#8B4513" opacity="0.7">
    <ellipse cx="58" cy="15" rx="0.5" ry="2" transform="rotate(20 58 15)"/>
    <ellipse cx="65" cy="20" rx="0.4" ry="1.5" transform="rotate(-30 65 20)"/>
    <ellipse cx="55" cy="22" rx="0.3" ry="1" transform="rotate(45 55 22)"/>
  </g>
  <!-- Cherry on top -->
  <circle cx="60" cy="8" r="4" fill="#FF0000"/>
  <circle cx="60" cy="8" r="3" fill="#DC143C"/>
  <circle cx="58" cy="6" r="1" fill="#FF6347" opacity="0.8"/>
  <!-- Cherry stem -->
  <ellipse cx="62" cy="4" rx="2" ry="6" fill="#228B22"/>
  <path d="M 61 1 Q 63 3 65 1" stroke="#32CD32" stroke-width="1" fill="none"/>
  <!-- Ice cream highlights -->
  <ellipse cx="50" cy="45" rx="6" ry="8" fill="#FFFFFF" opacity="0.3"/>
  <ellipse cx="52" cy="28" rx="5" ry="6" fill="#FFFFFF" opacity="0.3"/>
  <ellipse cx="52" cy="12" rx="4" ry="5" fill="#FFFFFF" opacity="0.3"/>
  <!-- Melting drips -->
  <ellipse cx="40" cy="65" rx="3" ry="8" fill="url(#strawberryGradient)" opacity="0.8"/>
  <ellipse cx="80" cy="62" rx="2.5" ry="6" fill="url(#mintGradient)" opacity="0.7"/>
</svg>