<svg width="120" height="120" viewBox="0 0 120 120" xmlns="http://www.w3.org/2000/svg">
  <defs>
    <radialGradient id="coolFaceGradient" cx="0.3" cy="0.3">
      <stop offset="0%" stop-color="#FFE55C"/>
      <stop offset="70%" stop-color="#FFD93D"/>
      <stop offset="100%" stop-color="#F1C40F"/>
    </radialGradient>
    <linearGradient id="glassGradient" x1="0%" y1="0%" x2="100%" y2="100%">
      <stop offset="0%" stop-color="#333"/>
      <stop offset="50%" stop-color="#000"/>
      <stop offset="100%" stop-color="#111"/>
    </linearGradient>
    <filter id="shadow">
      <feDropShadow dx="2" dy="2" stdDeviation="3" flood-color="#00000030"/>
    </filter>
  </defs>
  <!-- Face with gradient and shadow -->
  <circle cx="60" cy="60" r="50" fill="url(#coolFaceGradient)" filter="url(#shadow)"/>
  <!-- Face highlight -->
  <ellipse cx="45" cy="40" rx="12" ry="18" fill="#FFEB3B" opacity="0.3"/>
  <!-- Sunglasses frame with gradient -->
  <rect x="30" y="40" width="25" height="20" rx="3" fill="url(#glassGradient)"/>
  <rect x="65" y="40" width="25" height="20" rx="3" fill="url(#glassGradient)"/>
  <!-- Lens reflections -->
  <ellipse cx="38" cy="46" rx="6" ry="8" fill="#4A90E2" opacity="0.3"/>
  <ellipse cx="73" cy="46" rx="6" ry="8" fill="#4A90E2" opacity="0.3"/>
  <ellipse cx="35" cy="43" rx="3" ry="4" fill="#fff" opacity="0.6"/>
  <ellipse cx="70" cy="43" rx="3" ry="4" fill="#fff" opacity="0.6"/>
  <!-- Bridge with detail -->
  <rect x="55" y="47" width="10" height="6" rx="2" fill="#333"/>
  <rect x="56" y="48" width="8" height="4" rx="1" fill="#666"/>
  <!-- Temple arms with detail -->
  <rect x="15" y="47" width="18" height="3" rx="1" fill="#333"/>
  <rect x="16" y="47.5" width="16" height="2" rx="1" fill="#555"/>
  <rect x="87" y="47" width="18" height="3" rx="1" fill="#333"/>
  <rect x="88" y="47.5" width="16" height="2" rx="1" fill="#555"/>
  <!-- Cool smirk -->
  <path d="M 50 75 Q 65 85 75 75" stroke="#8B4513" stroke-width="4" fill="none" stroke-linecap="round"/>
  <path d="M 52 77 Q 65 83 73 77" stroke="#A0522D" stroke-width="2" fill="none" stroke-linecap="round"/>
</svg>