<svg width="120" height="120" viewBox="0 0 120 120" xmlns="http://www.w3.org/2000/svg">
  <defs>
    <radialGradient id="topBunGradient" cx="0.3" cy="0.3">
      <stop offset="0%" stop-color="#F5DEB3"/>
      <stop offset="70%" stop-color="#DEB887"/>
      <stop offset="100%" stop-color="#D2B48C"/>
    </radialGradient>
    <radialGradient id="bottomBunGradient" cx="0.3" cy="0.3">
      <stop offset="0%" stop-color="#DEB887"/>
      <stop offset="70%" stop-color="#CD853F"/>
      <stop offset="100%" stop-color="#A0522D"/>
    </radialGradient>
    <radialGradient id="meatGradient" cx="0.3" cy="0.3">
      <stop offset="0%" stop-color="#A0522D"/>
      <stop offset="70%" stop-color="#8B4513"/>
      <stop offset="100%" stop-color="#654321"/>
    </radialGradient>
    <linearGradient id="cheeseGradient" x1="0%" y1="0%" x2="100%" y2="100%">
      <stop offset="0%" stop-color="#FFF8DC"/>
      <stop offset="50%" stop-color="#FFD700"/>
      <stop offset="100%" stop-color="#DAA520"/>
    </linearGradient>
    <filter id="shadow">
      <feDropShadow dx="3" dy="3" stdDeviation="4" flood-color="#00000040"/>
    </filter>
  </defs>
  <!-- Burger shadow -->
  <ellipse cx="62" cy="105" rx="40" ry="8" fill="#00000030"/>
  <!-- Bottom bun with gradient -->
  <ellipse cx="60" cy="85" rx="42" ry="18" fill="url(#bottomBunGradient)" filter="url(#shadow)"/>
  <!-- Bottom bun texture -->
  <ellipse cx="60" cy="85" rx="38" ry="15" fill="none" stroke="#A0522D" stroke-width="1" opacity="0.3"/>
  <!-- Cheese slice with melt -->
  <ellipse cx="60" cy="75" rx="40" ry="8" fill="url(#cheeseGradient)"/>
  <!-- Cheese melt drips -->
  <ellipse cx="25" cy="80" rx="4" ry="8" fill="url(#cheeseGradient)" opacity="0.8"/>
  <ellipse cx="95" cy="78" rx="3" ry="6" fill="url(#cheeseGradient)" opacity="0.8"/>
  <!-- Meat patty with gradient and texture -->
  <ellipse cx="60" cy="65" rx="37" ry="10" fill="url(#meatGradient)"/>
  <!-- Meat texture/grill marks -->
  <ellipse cx="60" cy="65" rx="33" ry="8" fill="none" stroke="#654321" stroke-width="2" opacity="0.4"/>
  <path d="M 30 65 L 90 65" stroke="#654321" stroke-width="1" opacity="0.5"/>
  <path d="M 35 62 L 85 62" stroke="#654321" stroke-width="1" opacity="0.3"/>
  <path d="M 35 68 L 85 68" stroke="#654321" stroke-width="1" opacity="0.3"/>
  <!-- Lettuce with realistic edges -->
  <ellipse cx="60" cy="55" rx="39" ry="8" fill="#90EE90"/>
  <path d="M 21 55 Q 25 50 30 55 Q 35 60 40 55 Q 45 50 50 55 Q 55 60 60 55 Q 65 50 70 55 Q 75 60 80 55 Q 85 50 90 55 Q 95 60 99 55" 
        stroke="#32CD32" stroke-width="2" fill="none"/>
  <!-- Tomato slices -->
  <ellipse cx="50" cy="48" rx="8" ry="6" fill="#FF6347"/>
  <ellipse cx="70" cy="48" rx="8" ry="6" fill="#FF6347"/>
  <!-- Tomato seeds -->
  <ellipse cx="48" cy="47" rx="1" ry="2" fill="#FFD700" opacity="0.8"/>
  <ellipse cx="52" cy="49" rx="1" ry="2" fill="#FFD700" opacity="0.8"/>
  <ellipse cx="68" cy="47" rx="1" ry="2" fill="#FFD700" opacity="0.8"/>
  <ellipse cx="72" cy="49" rx="1" ry="2" fill="#FFD700" opacity="0.8"/>
  <!-- Top bun with gradient -->
  <ellipse cx="60" cy="35" rx="40" ry="20" fill="url(#topBunGradient)"/>
  <!-- Top bun highlight -->
  <ellipse cx="50" cy="28" rx="15" ry="8" fill="#FFFACD" opacity="0.4"/>
  <!-- Sesame seeds on top bun -->
  <ellipse cx="45" cy="25" rx="2" ry="1.5" fill="#F5DEB3" transform="rotate(20 45 25)"/>
  <ellipse cx="70" cy="28" rx="2" ry="1.5" fill="#F5DEB3" transform="rotate(-15 70 28)"/>
  <ellipse cx="55" cy="22" rx="2" ry="1.5" fill="#F5DEB3" transform="rotate(45 55 22)"/>
  <ellipse cx="75" cy="24" rx="2" ry="1.5" fill="#F5DEB3" transform="rotate(-30 75 24)"/>
  <ellipse cx="60" cy="20" rx="2" ry="1.5" fill="#F5DEB3"/>
  <ellipse cx="50" cy="30" rx="2" ry="1.5" fill="#F5DEB3" transform="rotate(60 50 30)"/>
  <!-- Bun texture lines -->
  <ellipse cx="60" cy="35" rx="35" ry="17" fill="none" stroke="#D2B48C" stroke-width="1" opacity="0.3"/>
</svg>