<svg width="120" height="120" viewBox="0 0 120 120" xmlns="http://www.w3.org/2000/svg">
  <defs>
    <radialGradient id="crustGradient" cx="0.3" cy="0.3">
      <stop offset="0%" stop-color="#DEB887"/>
      <stop offset="70%" stop-color="#D2B48C"/>
      <stop offset="100%" stop-color="#BC9A6A"/>
    </radialGradient>
    <radialGradient id="sauceGradient" cx="0.3" cy="0.3">
      <stop offset="0%" stop-color="#FF7F7F"/>
      <stop offset="70%" stop-color="#FF6347"/>
      <stop offset="100%" stop-color="#CD5C5C"/>
    </radialGradient>
    <radialGradient id="cheeseGradient" cx="0.3" cy="0.3">
      <stop offset="0%" stop-color="#FFF8DC"/>
      <stop offset="70%" stop-color="#FFE135"/>
      <stop offset="100%" stop-color="#DAA520"/>
    </radialGradient>
    <filter id="shadow">
      <feDropShadow dx="3" dy="3" stdDeviation="4" flood-color="#00000040"/>
    </filter>
  </defs>
  <!-- Pizza shadow -->
  <ellipse cx="62" cy="100" rx="35" ry="8" fill="#00000025"/>
  <!-- Pizza base (crust) -->
  <circle cx="60" cy="60" r="48" fill="url(#crustGradient)" filter="url(#shadow)"/>
  <!-- Crust texture -->
  <circle cx="60" cy="60" r="45" fill="none" stroke="#BC9A6A" stroke-width="2" opacity="0.5"/>
  <!-- Pizza sauce -->
  <circle cx="60" cy="60" r="38" fill="url(#sauceGradient)"/>
  <!-- Cheese with melted look -->
  <circle cx="60" cy="60" r="35" fill="url(#cheeseGradient)"/>
  <!-- Cheese bubbles -->
  <circle cx="45" cy="50" r="3" fill="#FFF8DC" opacity="0.8"/>
  <circle cx="75" cy="55" r="2" fill="#FFF8DC" opacity="0.7"/>
  <circle cx="50" cy="75" r="2.5" fill="#FFF8DC" opacity="0.6"/>
  <circle cx="70" cy="70" r="1.5" fill="#FFF8DC" opacity="0.8"/>
  <!-- Pepperoni with detail -->
  <circle cx="48" cy="48" r="6" fill="#8B0000"/>
  <circle cx="48" cy="48" r="5" fill="#A0522D"/>
  <circle cx="47" cy="46" r="1" fill="#CD5C5C" opacity="0.6"/>
  
  <circle cx="72" cy="45" r="6" fill="#8B0000"/>
  <circle cx="72" cy="45" r="5" fill="#A0522D"/>
  <circle cx="71" cy="43" r="1" fill="#CD5C5C" opacity="0.6"/>
  
  <circle cx="45" cy="72" r="6" fill="#8B0000"/>
  <circle cx="45" cy="72" r="5" fill="#A0522D"/>
  <circle cx="44" cy="70" r="1" fill="#CD5C5C" opacity="0.6"/>
  
  <circle cx="75" cy="72" r="6" fill="#8B0000"/>
  <circle cx="75" cy="72" r="5" fill="#A0522D"/>
  <circle cx="74" cy="70" r="1" fill="#CD5C5C" opacity="0.6"/>
  
  <circle cx="60" cy="78" r="6" fill="#8B0000"/>
  <circle cx="60" cy="78" r="5" fill="#A0522D"/>
  <circle cx="59" cy="76" r="1" fill="#CD5C5C" opacity="0.6"/>
  
  <!-- Herbs/oregano -->
  <ellipse cx="55" cy="60" rx="1" ry="3" fill="#228B22" opacity="0.7" transform="rotate(45 55 60)"/>
  <ellipse cx="65" cy="58" rx="1" ry="2" fill="#228B22" opacity="0.6" transform="rotate(-30 65 58)"/>
  <ellipse cx="52" cy="65" rx="1" ry="2" fill="#228B22" opacity="0.5" transform="rotate(80 52 65)"/>
</svg>