<svg width="120" height="120" viewBox="0 0 120 120" xmlns="http://www.w3.org/2000/svg">
  <defs>
    <radialGradient id="goldGradient" cx="0.3" cy="0.3">
      <stop offset="0%" stop-color="#FFF700"/>
      <stop offset="30%" stop-color="#FFD700"/>
      <stop offset="70%" stop-color="#FFA500"/>
      <stop offset="100%" stop-color="#FF8C00"/>
    </radialGradient>
    <radialGradient id="leafGradient" cx="0.3" cy="0.3">
      <stop offset="0%" stop-color="#90EE90"/>
      <stop offset="50%" stop-color="#32CD32"/>
      <stop offset="100%" stop-color="#228B22"/>
    </radialGradient>
    <filter id="goldGlow">
      <feGaussianBlur stdDeviation="3" result="coloredBlur"/>
      <feMerge> 
        <feMergeNode in="coloredBlur"/>
        <feMergeNode in="SourceGraphic"/>
      </feMerge>
    </filter>
    <filter id="sparkleGlow">
      <feGaussianBlur stdDeviation="2" result="sparkleBlur"/>
      <feMerge> 
        <feMergeNode in="sparkleBlur"/>
        <feMergeNode in="SourceGraphic"/>
      </feMerge>
    </filter>
  </defs>
  <!-- Golden apple shadow -->
  <ellipse cx="62" cy="105" rx="35" ry="10" fill="#FF8C0050"/>
  <!-- Golden apple shape -->
  <path d="M 60 20 C 45 25, 25 40, 25 65 C 25 90, 40 110, 60 110 C 80 110, 95 90, 95 65 C 95 40, 75 25, 60 20 Z" fill="url(#goldGradient)" filter="url(#goldGlow)"/>
  <!-- Apple indent -->
  <path d="M 50 25 Q 55 20, 60 25 Q 65 20, 70 25 Q 65 30, 60 27 Q 55 30, 50 25 Z" fill="#FF8C00"/>
  <!-- Golden highlights -->
  <ellipse cx="45" cy="40" rx="15" ry="25" fill="#FFF700" opacity="0.6"/>
  <ellipse cx="40" cy="35" rx="8" ry="15" fill="#FFFF00" opacity="0.4"/>
  <ellipse cx="75" cy="70" rx="10" ry="15" fill="#FFA500" opacity="0.3"/>
  <!-- Golden leaf -->
  <ellipse cx="68" cy="25" rx="10" ry="18" fill="url(#leafGradient)" transform="rotate(25 68 25)"/>
  <!-- Leaf veins -->
  <path d="M 65 15 Q 68 25 71 35" stroke="#228B22" stroke-width="1.5" fill="none" transform="rotate(25 68 25)"/>
  <path d="M 62 18 Q 68 25 74 32" stroke="#228B22" stroke-width="1" fill="none" transform="rotate(25 68 25)"/>
  <!-- Golden stem -->
  <rect x="58" y="15" width="4" height="12" fill="#8B4513"/>
  <rect x="59" y="16" width="2" height="10" fill="#DAA520"/>
  <!-- Magical sparkles -->
  <g fill="#FFFFFF" filter="url(#sparkleGlow)">
    <polygon points="35,35 37,42 44,42 38,47 40,54 35,49 30,54 32,47 26,42 33,42"/>
    <polygon points="85,30 86,35 91,35 87,38 88,43 85,40 82,43 83,38 79,35 84,35"/>
    <polygon points="80,75 81,80 86,80 82,83 83,88 80,85 77,88 78,83 74,80 79,80"/>
    <polygon points="40,85 41,90 46,90 42,93 43,98 40,95 37,98 38,93 34,90 39,90"/>
    <polygon points="25,60 26,65 31,65 27,68 28,73 25,70 22,73 23,68 19,65 24,65"/>
    <polygon points="95,55 96,60 101,60 97,63 98,68 95,65 92,68 93,63 89,60 94,60"/>
  </g>
  <!-- Golden shimmer lines -->
  <path d="M 30 45 Q 45 50 60 45" stroke="#FFFF00" stroke-width="2" opacity="0.6" fill="none"/>
  <path d="M 35 65 Q 50 70 65 65" stroke="#FFFF00" stroke-width="1.5" opacity="0.5" fill="none"/>
  <path d="M 70 50 Q 80 55 90 50" stroke="#FFFF00" stroke-width="1" opacity="0.4" fill="none"/>
  <!-- Golden texture spots -->
  <circle cx="50" cy="55" r="2" fill="#FFA500" opacity="0.7"/>
  <circle cx="70" cy="60" r="1.5" fill="#FF8C00" opacity="0.6"/>
  <circle cx="45" cy="75" r="1" fill="#DAA520" opacity="0.5"/>
</svg>