<svg width="120" height="120" viewBox="0 0 120 120" xmlns="http://www.w3.org/2000/svg">
  <defs>
    <radialGradient id="surprisedFaceGradient" cx="0.3" cy="0.3">
      <stop offset="0%" stop-color="#FFE55C"/>
      <stop offset="70%" stop-color="#FFD93D"/>
      <stop offset="100%" stop-color="#F1C40F"/>
    </radialGradient>
    <filter id="shadow">
      <feDropShadow dx="2" dy="2" stdDeviation="3" flood-color="#00000030"/>
    </filter>
  </defs>
  <!-- Face with gradient and shadow -->
  <circle cx="60" cy="60" r="50" fill="url(#surprisedFaceGradient)" filter="url(#shadow)"/>
  <!-- Face highlight -->
  <ellipse cx="45" cy="40" rx="12" ry="18" fill="#FFEB3B" opacity="0.4"/>
  <!-- Raised eyebrows -->
  <path d="M 35 30 Q 45 25 55 30" stroke="#B8860B" stroke-width="3" fill="none" stroke-linecap="round"/>
  <path d="M 65 30 Q 75 25 85 30" stroke="#B8860B" stroke-width="3" fill="none" stroke-linecap="round"/>
  <!-- Wide surprised eyes -->
  <circle cx="45" cy="45" r="10" fill="#fff"/>
  <circle cx="45" cy="45" r="8" fill="#000"/>
  <circle cx="47" cy="42" r="2" fill="#fff"/>
  <circle cx="46" cy="44" r="1" fill="#fff" opacity="0.6"/>
  
  <circle cx="75" cy="45" r="10" fill="#fff"/>
  <circle cx="75" cy="45" r="8" fill="#000"/>
  <circle cx="77" cy="42" r="2" fill="#fff"/>
  <circle cx="76" cy="44" r="1" fill="#fff" opacity="0.6"/>
  <!-- Open surprised mouth -->
  <ellipse cx="60" cy="78" rx="8" ry="12" fill="#8B4513"/>
  <ellipse cx="60" cy="78" rx="6" ry="10" fill="#000"/>
  <ellipse cx="60" cy="76" rx="4" ry="6" fill="#4A4A4A"/>
  <!-- Teeth showing -->
  <rect x="56" y="72" width="2" height="4" fill="#fff" rx="1"/>
  <rect x="59" y="72" width="2" height="4" fill="#fff" rx="1"/>
  <rect x="62" y="72" width="2" height="4" fill="#fff" rx="1"/>
  <!-- Surprise lines around face -->
  <path d="M 25 45 L 30 40" stroke="#E6C200" stroke-width="2" opacity="0.5" stroke-linecap="round"/>
  <path d="M 25 55 L 30 60" stroke="#E6C200" stroke-width="2" opacity="0.5" stroke-linecap="round"/>
  <path d="M 95 45 L 90 40" stroke="#E6C200" stroke-width="2" opacity="0.5" stroke-linecap="round"/>
  <path d="M 95 55 L 90 60" stroke="#E6C200" stroke-width="2" opacity="0.5" stroke-linecap="round"/>
</svg>